<svg width="1332" height="258" viewBox="0 0 1332 258" fill="none" xmlns="http://www.w3.org/2000/svg">
<path d="M105.099 108.984L1.45693 148.35C0.499928 142.008 0 135.516 0 128.91C0 110.42 3.8923 92.8295 10.9056 76.9318C24.0894 47.0647 48.2573 23.1538 78.2959 10.3128L105.099 108.984Z" fill="#FBCD51"/>
<path d="M257.82 128.91C257.82 147.286 253.978 164.762 247.043 180.588C233.873 210.663 209.548 234.745 179.303 247.6L152.135 147.607L256.149 108.106C257.249 114.876 257.82 121.825 257.82 128.91Z" fill="#FBCD51"/>
<path d="M253.378 95.2434L189.766 119.404L85.1377 7.62747C93.8079 4.49221 102.907 2.26396 112.327 1.05699C117.754 0.357091 123.289 0 128.91 0C174.268 0 214.155 23.4252 237.13 58.8415C239.537 62.5481 241.758 66.3904 243.779 70.347C247.8 78.2102 251.035 86.5447 253.378 95.2434Z" fill="#FBCD51"/>
<path d="M172.997 250.085C164.162 253.299 154.871 255.577 145.251 256.792C139.901 257.47 134.445 257.82 128.91 257.82C83.0523 257.82 42.7938 233.881 19.94 197.814C17.5975 194.115 15.4406 190.294 13.4766 186.352C9.53434 178.446 6.37765 170.083 4.12084 161.362L67.4332 137.316L172.997 250.085Z" fill="#FBCD51"/>
<path d="M471.589 202.857L455.592 186.959C449.993 191.492 443.727 195.024 436.794 197.557C429.862 200.09 422.53 201.357 414.798 201.357C405.266 201.357 396.334 199.49 388.001 195.758C379.669 191.958 372.337 186.759 366.005 180.16C359.672 173.494 354.706 165.762 351.107 156.963C347.574 148.164 345.807 138.766 345.807 128.767C345.807 118.769 347.574 109.403 351.107 100.671C354.706 91.8725 359.672 84.1403 366.005 77.4746C372.337 70.8089 379.669 65.6096 388.001 61.8768C396.334 58.0774 405.266 56.1776 414.798 56.1776C424.33 56.1776 433.228 58.0774 441.494 61.8768C449.826 65.6096 457.158 70.8089 463.491 77.4746C469.823 84.1403 474.756 91.8725 478.288 100.671C481.888 109.403 483.688 118.769 483.688 128.767C483.688 136.899 482.454 144.632 479.988 151.964C477.589 159.229 474.256 165.895 469.99 171.961L486.287 188.159L471.589 202.857ZM414.798 180.56C419.464 180.56 423.996 179.793 428.396 178.26C432.862 176.727 436.894 174.561 440.494 171.761L424.996 156.363L439.694 141.565L454.492 156.463C457.291 152.464 459.391 148.098 460.791 143.365C462.191 138.632 462.891 133.766 462.891 128.767C462.891 121.635 461.624 114.969 459.091 108.77C456.625 102.504 453.159 97.0051 448.693 92.2724C444.293 87.4731 439.194 83.7403 433.395 81.0741C427.596 78.3411 421.397 76.9746 414.798 76.9746C408.132 76.9746 401.899 78.3411 396.1 81.0741C390.301 83.807 385.168 87.5731 380.702 92.3724C376.303 97.1051 372.837 102.604 370.304 108.87C367.838 115.069 366.605 121.702 366.605 128.767C366.605 135.9 367.838 142.599 370.304 148.864C372.837 155.13 376.336 160.663 380.802 165.462C385.268 170.195 390.401 173.894 396.2 176.56C401.999 179.227 408.199 180.56 414.798 180.56Z" fill="white"/>
<path d="M499.887 161.762V99.2714H520.684V156.663C520.684 161.129 521.784 165.195 523.983 168.861C526.183 172.528 529.116 175.46 532.782 177.66C536.448 179.793 540.481 180.86 544.88 180.86C549.346 180.86 553.379 179.793 556.979 177.66C560.645 175.46 563.544 172.528 565.677 168.861C567.877 165.195 568.977 161.129 568.977 156.663V99.2714H589.774L589.874 199.257H569.077L568.977 188.459C565.577 192.591 561.345 195.858 556.279 198.257C551.213 200.657 545.78 201.857 539.981 201.857C532.582 201.857 525.85 200.057 519.784 196.457C513.718 192.858 508.886 188.025 505.286 181.96C501.687 175.894 499.887 169.161 499.887 161.762Z" fill="white"/>
<path d="M609.926 99.2714H630.723V199.257H609.926V99.2714ZM620.524 84.7735C617.325 84.7735 614.658 83.7403 612.525 81.674C610.392 79.6076 609.326 77.008 609.326 73.8751C609.326 70.8089 610.392 68.2426 612.525 66.1762C614.658 64.0432 617.291 62.9767 620.424 62.9767C623.49 62.9767 626.09 64.0432 628.223 66.1762C630.356 68.2426 631.423 70.8089 631.423 73.8751C631.423 77.008 630.356 79.6076 628.223 81.674C626.157 83.7403 623.59 84.7735 620.524 84.7735Z" fill="white"/>
<path d="M718.179 170.861L736.776 180.96C732.244 187.292 726.478 192.358 719.479 196.158C712.546 199.957 705.014 201.857 696.882 201.857C687.683 201.857 679.285 199.49 671.686 194.758C664.153 190.025 658.121 183.693 653.588 175.76C649.122 167.762 646.889 158.93 646.889 149.264C646.889 141.932 648.189 135.1 650.789 128.767C653.388 122.368 656.954 116.769 661.487 111.97C666.086 107.104 671.419 103.304 677.485 100.571C683.551 97.8383 690.016 96.4718 696.882 96.4718C705.014 96.4718 712.546 98.3716 719.479 102.171C726.478 105.97 732.244 111.07 736.776 117.469L718.179 127.567C715.379 124.235 712.113 121.702 708.38 119.968C704.648 118.169 700.815 117.269 696.882 117.269C691.416 117.269 686.45 118.769 681.984 121.768C677.585 124.701 674.085 128.601 671.486 133.467C668.953 138.266 667.686 143.532 667.686 149.264C667.686 154.93 668.986 160.196 671.586 165.062C674.185 169.861 677.685 173.727 682.084 176.66C686.55 179.593 691.483 181.06 696.882 181.06C701.015 181.06 704.947 180.126 708.68 178.26C712.413 176.394 715.579 173.927 718.179 170.861Z" fill="white"/>
<path d="M837.776 199.257H813.779L789.183 156.863L773.085 176.06V199.257H752.288V49.2786H773.085V143.765L810.28 99.2714H837.476L803.381 139.966L837.776 199.257Z" fill="white"/>
<path d="M856.179 199.257V59.2772H902.473C912.138 59.2772 921.203 61.1103 929.669 64.7764C938.134 68.3759 945.566 73.4085 951.966 79.8742C958.365 86.2733 963.364 93.7056 966.963 102.171C970.63 110.57 972.463 119.602 972.463 129.267C972.463 138.932 970.63 147.998 966.963 156.463C963.364 164.862 958.365 172.294 951.966 178.76C945.566 185.159 938.134 190.192 929.669 193.858C921.203 197.457 912.138 199.257 902.473 199.257H856.179ZM876.976 178.46H902.473C909.272 178.46 915.604 177.194 921.47 174.661C927.402 172.128 932.635 168.595 937.168 164.062C941.767 159.529 945.333 154.297 947.866 148.364C950.399 142.432 951.666 136.066 951.666 129.267C951.666 122.468 950.399 116.102 947.866 110.17C945.333 104.237 941.767 99.0048 937.168 94.4721C932.635 89.9394 927.402 86.4066 921.47 83.8736C915.604 81.3407 909.272 80.0742 902.473 80.0742H876.976V178.46Z" fill="white"/>
<path d="M1065.79 99.2714H1086.58V199.257H1065.69L1064.89 184.759C1061.95 189.892 1057.99 194.024 1052.99 197.157C1047.99 200.29 1042.09 201.857 1035.29 201.857C1027.96 201.857 1021.06 200.49 1014.59 197.757C1008.13 194.958 1002.43 191.092 997.495 186.159C992.629 181.226 988.829 175.56 986.097 169.161C983.364 162.696 981.997 155.763 981.997 148.364C981.997 141.232 983.33 134.533 985.997 128.267C988.663 121.935 992.362 116.402 997.095 111.67C1001.83 106.937 1007.29 103.238 1013.49 100.571C1019.76 97.8383 1026.46 96.4718 1033.59 96.4718C1040.86 96.4718 1047.25 98.1383 1052.79 101.471C1058.39 104.737 1063.02 108.937 1066.69 114.069L1065.79 99.2714ZM1034.79 181.76C1040.66 181.76 1045.79 180.326 1050.19 177.46C1054.59 174.527 1057.99 170.594 1060.39 165.662C1062.85 160.729 1064.09 155.263 1064.09 149.264C1064.09 143.198 1062.85 137.699 1060.39 132.767C1057.92 127.834 1054.49 123.935 1050.09 121.068C1045.75 118.135 1040.66 116.669 1034.79 116.669C1028.99 116.669 1023.69 118.135 1018.89 121.068C1014.09 124.001 1010.29 127.934 1007.49 132.867C1004.69 137.799 1003.29 143.265 1003.29 149.264C1003.29 155.33 1004.73 160.829 1007.59 165.762C1010.53 170.628 1014.36 174.527 1019.09 177.46C1023.89 180.326 1029.12 181.76 1034.79 181.76Z" fill="white"/>
<path d="M1127.33 249.25H1106.53V99.2714H1127.33V113.969C1130.66 108.837 1134.93 104.671 1140.13 101.471C1145.33 98.2716 1151.46 96.6718 1158.53 96.6718C1165.79 96.6718 1172.59 98.0383 1178.92 100.771C1185.32 103.504 1190.92 107.304 1195.72 112.17C1200.52 116.969 1204.29 122.535 1207.02 128.867C1209.75 135.2 1211.12 141.999 1211.12 149.264C1211.12 156.53 1209.75 163.362 1207.02 169.761C1204.29 176.16 1200.52 181.793 1195.72 186.659C1190.92 191.458 1185.32 195.224 1178.92 197.957C1172.59 200.69 1165.79 202.057 1158.53 202.057C1151.46 202.057 1145.33 200.457 1140.13 197.257C1134.93 193.991 1130.66 189.825 1127.33 184.759V249.25ZM1158.33 116.769C1152.53 116.769 1147.43 118.235 1143.03 121.168C1138.63 124.101 1135.2 128.034 1132.73 132.967C1130.26 137.833 1129.03 143.265 1129.03 149.264C1129.03 155.263 1130.26 160.729 1132.73 165.662C1135.2 170.594 1138.63 174.527 1143.03 177.46C1147.43 180.393 1152.53 181.86 1158.33 181.86C1164.06 181.86 1169.32 180.426 1174.12 177.56C1178.92 174.627 1182.76 170.694 1185.62 165.762C1188.49 160.829 1189.92 155.33 1189.92 149.264C1189.92 143.332 1188.49 137.899 1185.62 132.967C1182.82 128.034 1179.02 124.101 1174.22 121.168C1169.42 118.235 1164.13 116.769 1158.33 116.769Z" fill="white"/>
<path d="M1248.21 249.25H1227.41V99.2714H1248.21V113.969C1251.54 108.837 1255.81 104.671 1261.01 101.471C1266.21 98.2716 1272.34 96.6718 1279.41 96.6718C1286.67 96.6718 1293.47 98.0383 1299.8 100.771C1306.2 103.504 1311.8 107.304 1316.6 112.17C1321.4 116.969 1325.17 122.535 1327.9 128.867C1330.63 135.2 1332 141.999 1332 149.264C1332 156.53 1330.63 163.362 1327.9 169.761C1325.17 176.16 1321.4 181.793 1316.6 186.659C1311.8 191.458 1306.2 195.224 1299.8 197.957C1293.47 200.69 1286.67 202.057 1279.41 202.057C1272.34 202.057 1266.21 200.457 1261.01 197.257C1255.81 193.991 1251.54 189.825 1248.21 184.759V249.25ZM1279.21 116.769C1273.41 116.769 1268.31 118.235 1263.91 121.168C1259.51 124.101 1256.08 128.034 1253.61 132.967C1251.14 137.833 1249.91 143.265 1249.91 149.264C1249.91 155.263 1251.14 160.729 1253.61 165.662C1256.08 170.594 1259.51 174.527 1263.91 177.46C1268.31 180.393 1273.41 181.86 1279.21 181.86C1284.94 181.86 1290.21 180.426 1295.01 177.56C1299.8 174.627 1303.64 170.694 1306.5 165.762C1309.37 160.829 1310.8 155.33 1310.8 149.264C1310.8 143.332 1309.37 137.899 1306.5 132.967C1303.7 128.034 1299.9 124.101 1295.11 121.168C1290.31 118.235 1285.01 116.769 1279.21 116.769Z" fill="white"/>
</svg>
